<svg width="125" height="37" viewBox="0 0 125 37" fill="none" xmlns="http://www.w3.org/2000/svg">
<path fill-rule="evenodd" clip-rule="evenodd" d="M16.1471 36.3503C25.065 36.3503 32.2943 29.1544 32.2943 20.2779C32.2943 11.4014 25.065 4.20557 16.1471 4.20557C7.22932 4.20557 0 11.4014 0 20.2779C0 29.1544 7.22932 36.3503 16.1471 36.3503ZM26.6771 24.6204C27.2497 23.2444 27.5444 21.7696 27.5444 20.2802H16.15L4.75561 20.2802C4.75561 21.7696 5.05034 23.2444 5.62296 24.6204C6.19558 25.9964 7.03489 27.2467 8.09295 28.2999C9.15102 29.3531 10.4071 30.1885 11.7896 30.7585C13.172 31.3284 14.6537 31.6218 16.15 31.6218C17.6463 31.6218 19.128 31.3284 20.5105 30.7585C21.8929 30.1885 23.149 29.3531 24.2071 28.2999C25.2651 27.2467 26.1044 25.9964 26.6771 24.6204Z" fill="white"/>
<path d="M43.5542 17.9497H40.8094V7.55277H43.5542V11.6422H47.1793V7.55277H49.9241V17.9497H47.1793V14.0335H43.5542V17.9497ZM51.3172 17.9497V7.55277H57.9713V9.94406H54.062V11.5521H57.694V13.9434H54.062V17.9497H51.3172ZM60.9864 17.9497H58.1099L62.1717 7.55277H65.0481L69.1029 17.9497H66.2265L65.5541 16.0991H61.6587L60.9864 17.9497ZM62.5321 13.7078H64.6877L63.6064 10.7412L62.5321 13.7078ZM74.9322 17.9497H72.0557L67.9939 7.55277H70.8704L73.4905 14.7613L76.1105 7.55277H78.987L74.9322 17.9497ZM82.4942 7.55277V17.9497H79.7494V7.55277H82.4942ZM92.8773 17.9497H89.8414L87.859 14.5118H86.6253V17.9497H83.8805V7.55277H88.067C88.968 7.55277 89.7351 7.68908 90.3682 7.96171C91.0012 8.23434 91.4841 8.63174 91.8168 9.15389C92.1541 9.67143 92.3228 10.2976 92.3228 11.0323C92.3228 11.7208 92.1749 12.3146 91.8792 12.8136C91.5834 13.3127 91.156 13.7054 90.5969 13.9919L92.8773 17.9497ZM86.6253 12.3977H87.8521C88.402 12.3977 88.8156 12.2961 89.0928 12.0928C89.3747 11.8848 89.5156 11.5775 89.5156 11.1709C89.5156 10.7643 89.3747 10.4593 89.0928 10.256C88.8156 10.048 88.402 9.94406 87.8521 9.94406H86.6253V12.3977ZM93.709 17.9497V7.55277H100.64V9.94406H96.4538V11.5521H100.363V13.9434H96.4538V15.5584H100.71V17.9497H93.709ZM43.5542 21.5528V31.9497H40.8094V21.5528H43.5542ZM47.1931 31.9497H44.3166L48.3784 21.5528H51.2549L55.3097 31.9497H52.4332L51.7608 30.0991H47.8655L47.1931 31.9497ZM48.7388 27.7078H50.8944L49.8132 24.7412L48.7388 27.7078ZM65.2491 21.5528V27.2572C65.2491 28.2738 65.062 29.1495 64.6877 29.8842C64.318 30.6143 63.7843 31.1757 63.0866 31.5685C62.3935 31.9613 61.5617 32.1576 60.5913 32.1576C59.6256 32.1576 58.7938 31.9613 58.096 31.5685C57.3983 31.1757 56.8623 30.6143 56.488 29.8842C56.1183 29.1495 55.9335 28.2738 55.9335 27.2572V21.5528H58.6783V26.8829C58.6783 27.5437 58.7453 28.0867 58.8793 28.5118C59.0179 28.9369 59.2282 29.2534 59.51 29.4614C59.7919 29.6647 60.1523 29.7663 60.5913 29.7663C61.0303 29.7663 61.3907 29.6647 61.6726 29.4614C61.9545 29.2534 62.1624 28.9369 62.2964 28.5118C62.435 28.0867 62.5044 27.5437 62.5044 26.8829V21.5528H65.2491ZM69.3802 21.5528V31.9497H66.6354V21.5528H69.3802ZM77.0809 31.9497H74.2044L70.1426 21.5528H73.0191L75.6392 28.7613L78.2592 21.5528H81.1357L77.0809 31.9497ZM93.9447 31.9497H90.9088L88.9264 28.5118H87.6927V31.9497H84.9479V21.5528H89.1344C90.0355 21.5528 90.8025 21.6891 91.4356 21.9617C92.0686 22.2343 92.5515 22.6317 92.8842 23.1539C93.2215 23.6714 93.3902 24.2976 93.3902 25.0323C93.3902 25.7208 93.2423 26.3146 92.9466 26.8136C92.6509 27.3127 92.2234 27.7054 91.6643 27.9919L93.9447 31.9497ZM87.6927 26.3977H88.9195C89.4694 26.3977 89.883 26.2961 90.1602 26.0928C90.4421 25.8848 90.583 25.5775 90.583 25.1709C90.583 24.7643 90.4421 24.4593 90.1602 24.256C89.883 24.048 89.4694 23.9441 88.9195 23.9441H87.6927V26.3977ZM101.846 31.9497H94.7765V21.5528H97.5213V29.5584H101.846V31.9497ZM111.37 21.5528V27.2572C111.37 28.2738 111.183 29.1495 110.809 29.8842C110.439 30.6143 109.905 31.1757 109.207 31.5685C108.514 31.9613 107.683 32.1576 106.712 32.1576C105.746 32.1576 104.915 31.9613 104.217 31.5685C103.519 31.1757 102.983 30.6143 102.609 29.8842C102.239 29.1495 102.054 28.2738 102.054 27.2572V21.5528H104.799V26.8829C104.799 27.5437 104.866 28.0867 105 28.5118C105.139 28.9369 105.349 29.2534 105.631 29.4614C105.913 29.6647 106.273 29.7663 106.712 29.7663C107.151 29.7663 107.512 29.6647 107.793 29.4614C108.075 29.2534 108.283 28.9369 108.417 28.5118C108.556 28.0867 108.625 27.5437 108.625 26.8829V21.5528H111.37ZM114.801 31.9497H111.924L115.986 21.5528H118.863L122.918 31.9497H120.041L119.369 30.0991H115.473L114.801 31.9497ZM116.347 27.7078H118.502L117.421 24.7412L116.347 27.7078Z" fill="white"/>
<path d="M111.628 5.94984C108.886 5.80101 106.697 3.60871 106.553 0.866369L106.545 0.717285C106.396 3.54211 104.137 5.79784 101.312 5.94222L101.163 5.94984L101.312 5.95746C104.137 6.10185 106.396 8.35757 106.545 11.1824L106.553 11.0333C106.697 8.29097 108.886 6.09868 111.628 5.94984Z" fill="white"/>
</svg>
