<svg width="24" height="24" viewBox="0 0 24 24" fill="none" xmlns="http://www.w3.org/2000/svg">
<path d="M15.9 13.2269L15.895 13.2249C15.832 13.1979 15.771 13.1669 15.707 13.1419C16.4213 12.582 16.999 11.8671 17.3964 11.0511C17.7938 10.2352 18.0006 9.33953 18.001 8.43193C17.9986 8.22122 17.9835 8.01085 17.956 7.80193C17.9714 7.76217 17.9841 7.72141 17.994 7.67993L18.275 5.28293C18.3627 4.52546 18.1592 3.76297 17.7058 3.14989C17.2524 2.5368 16.5829 2.11894 15.833 1.98093L15.043 1.83793C13.032 1.47069 10.971 1.47069 8.96 1.83793L8.169 1.98093C7.41906 2.11894 6.7496 2.5368 6.2962 3.14989C5.84279 3.76297 5.63932 4.52546 5.727 5.28293L6.007 7.67993C6.01723 7.72143 6.03026 7.76219 6.046 7.80193C6.01847 8.01085 6.00344 8.22122 6.001 8.43193C6.00143 9.33953 6.20816 10.2352 6.60557 11.0511C7.00299 11.8671 7.58068 12.582 8.295 13.1419C8.231 13.1669 8.17 13.1979 8.107 13.2249L8.102 13.2269C6.46493 13.9151 5.04191 15.0289 3.98067 16.4527C2.91943 17.8765 2.25867 19.5585 2.067 21.3239C2.0421 21.5856 2.1212 21.8465 2.2872 22.0502C2.45319 22.254 2.69273 22.3842 2.95399 22.4128C3.21526 22.4413 3.47725 22.3658 3.68329 22.2026C3.88934 22.0395 4.02287 21.8018 4.055 21.5409C4.19573 20.243 4.654 18.9998 5.38932 17.921C6.12463 16.8423 7.11435 15.9613 8.271 15.3559L11.294 18.3789C11.4815 18.5664 11.7358 18.6717 12.001 18.6717C12.2662 18.6717 12.5205 18.5664 12.708 18.3789L15.731 15.3559C16.8877 15.9613 17.8774 16.8423 18.6127 17.921C19.348 18.9998 19.8063 20.243 19.947 21.5409C19.9736 21.7856 20.0895 22.0119 20.2725 22.1765C20.4556 22.3411 20.6929 22.4324 20.939 22.4329C20.9757 22.4329 21.0125 22.4309 21.049 22.4269C21.1796 22.4127 21.3062 22.3729 21.4214 22.3098C21.5366 22.2467 21.6383 22.1615 21.7206 22.059C21.8028 21.9566 21.8641 21.8389 21.9009 21.7128C21.9377 21.5867 21.9493 21.4545 21.935 21.3239C21.7432 19.5584 21.0823 17.8764 20.0209 16.4525C18.9595 15.0287 17.5363 13.9149 15.899 13.2269H15.9ZM7.713 5.04893C7.68395 4.79655 7.75186 4.54255 7.90298 4.33833C8.0541 4.13412 8.27715 3.99493 8.527 3.94893L9.317 3.80593C11.0916 3.48161 12.9104 3.48161 14.685 3.80593L15.475 3.94893C15.7249 3.99493 15.9479 4.13412 16.099 4.33833C16.2501 4.54255 16.318 4.79655 16.289 5.04893L16.111 6.56293H7.891L7.713 5.04893ZM12.001 16.2589L10.351 14.6079C11.4386 14.3741 12.5634 14.3741 13.651 14.6079L12.001 16.2589ZM12.001 12.4329C10.963 12.4317 9.96602 12.0275 9.2202 11.3056C8.47438 10.5836 8.03799 9.60034 8.003 8.56293H15.999C15.964 9.60034 15.5276 10.5836 14.7818 11.3056C14.036 12.0275 13.039 12.4317 12.001 12.4329Z" fill="#FF8412"/>
</svg>
