<svg width="30" height="30" viewBox="0 0 30 30" fill="none" xmlns="http://www.w3.org/2000/svg">
<circle cx="15" cy="15" r="15" fill="#FF8412"/>
<path d="M17.9977 11.3259C17.8644 11.3259 17.7341 11.3655 17.6233 11.4395C17.5124 11.5136 17.4261 11.6188 17.3751 11.7419C17.324 11.8651 17.3107 12.0006 17.3367 12.1313C17.3627 12.262 17.4269 12.3821 17.5211 12.4764C17.6154 12.5706 17.7355 12.6348 17.8662 12.6608C17.9969 12.6868 18.1324 12.6735 18.2556 12.6225C18.3787 12.5714 18.484 12.4851 18.558 12.3742C18.6321 12.2634 18.6716 12.1331 18.6716 11.9998C18.6716 11.8211 18.6006 11.6497 18.4742 11.5233C18.3478 11.3969 18.1764 11.3259 17.9977 11.3259ZM20.581 12.685C20.5701 12.219 20.4828 11.758 20.3227 11.3203C20.1799 10.9458 19.9576 10.6067 19.6712 10.3263C19.3931 10.0384 19.0532 9.81759 18.6772 9.68046C18.2406 9.51544 17.7791 9.42617 17.3125 9.41651C16.7172 9.38281 16.5263 9.38281 14.9988 9.38281C13.4712 9.38281 13.2803 9.38281 12.685 9.41651C12.2184 9.42617 11.7569 9.51544 11.3203 9.68046C10.945 9.81897 10.6054 10.0396 10.3263 10.3263C10.0384 10.6044 9.81759 10.9443 9.68046 11.3203C9.51544 11.7569 9.42617 12.2184 9.41651 12.685C9.38281 13.2803 9.38281 13.4712 9.38281 14.9988C9.38281 16.5263 9.38281 16.7172 9.41651 17.3125C9.42617 17.7791 9.51544 18.2406 9.68046 18.6772C9.81759 19.0532 10.0384 19.3931 10.3263 19.6712C10.6054 19.9579 10.945 20.1785 11.3203 20.3171C11.7569 20.4821 12.2184 20.5713 12.685 20.581C13.2803 20.6147 13.4712 20.6147 14.9988 20.6147C16.5263 20.6147 16.7172 20.6147 17.3125 20.581C17.7791 20.5713 18.2406 20.4821 18.6772 20.3171C19.0532 20.1799 19.3931 19.9591 19.6712 19.6712C19.9589 19.3919 20.1813 19.0525 20.3227 18.6772C20.4828 18.2395 20.5701 17.7785 20.581 17.3125C20.581 16.7172 20.6147 16.5263 20.6147 14.9988C20.6147 13.4712 20.6147 13.2803 20.581 12.685ZM19.5701 17.2451C19.566 17.6016 19.5015 17.9548 19.3792 18.2897C19.2895 18.5341 19.1455 18.7549 18.958 18.9355C18.7758 19.1211 18.5555 19.2649 18.3122 19.3567C17.9773 19.479 17.6241 19.5436 17.2676 19.5477C16.706 19.5757 16.4982 19.5814 15.0212 19.5814C13.5442 19.5814 13.3364 19.5814 12.7748 19.5477C12.4047 19.5546 12.0361 19.4976 11.6853 19.3792C11.4527 19.2826 11.2425 19.1393 11.0676 18.958C10.8812 18.7776 10.739 18.5566 10.652 18.3122C10.5149 17.9725 10.4389 17.6113 10.4274 17.2451C10.4274 16.6835 10.3937 16.4757 10.3937 14.9988C10.3937 13.5218 10.3937 13.314 10.4274 12.7524C10.4299 12.3879 10.4964 12.0268 10.6239 11.6853C10.7228 11.4483 10.8746 11.237 11.0676 11.0676C11.2382 10.8745 11.4491 10.7211 11.6853 10.6183C12.0277 10.4948 12.3885 10.4302 12.7524 10.4274C13.314 10.4274 13.5218 10.3937 14.9988 10.3937C16.4757 10.3937 16.6835 10.3937 17.2451 10.4274C17.6016 10.4315 17.9548 10.496 18.2897 10.6183C18.5449 10.713 18.774 10.867 18.958 11.0676C19.142 11.2401 19.2858 11.451 19.3792 11.6853C19.504 12.0273 19.5686 12.3883 19.5701 12.7524C19.5982 13.314 19.6038 13.5218 19.6038 14.9988C19.6038 16.4757 19.5982 16.6835 19.5701 17.2451ZM14.9988 12.1178C14.4292 12.1189 13.8727 12.2888 13.3997 12.606C12.9267 12.9233 12.5583 13.3736 12.3411 13.9001C12.1239 14.4267 12.0676 15.0058 12.1794 15.5642C12.2912 16.1227 12.5661 16.6355 12.9692 17.0379C13.3723 17.4402 13.8857 17.7141 14.4444 17.8248C15.0031 17.9355 15.5821 17.8781 16.1082 17.6599C16.6343 17.4417 17.0839 17.0724 17.4002 16.5988C17.7165 16.1251 17.8853 15.5683 17.8853 14.9988C17.8861 14.6197 17.8119 14.2443 17.667 13.8941C17.5222 13.5438 17.3095 13.2257 17.0412 12.9579C16.7729 12.6902 16.4544 12.4781 16.1039 12.334C15.7533 12.1898 15.3778 12.1163 14.9988 12.1178ZM14.9988 16.8689C14.6289 16.8689 14.2673 16.7592 13.9598 16.5537C13.6522 16.3482 13.4125 16.0561 13.271 15.7144C13.1295 15.3727 13.0924 14.9967 13.1646 14.6339C13.2367 14.2711 13.4148 13.9379 13.6764 13.6764C13.9379 13.4148 14.2711 13.2367 14.6339 13.1646C14.9967 13.0924 15.3727 13.1295 15.7144 13.271C16.0561 13.4125 16.3482 13.6522 16.5537 13.9598C16.7592 14.2673 16.8689 14.6289 16.8689 14.9988C16.8689 15.2443 16.8205 15.4875 16.7265 15.7144C16.6325 15.9413 16.4948 16.1475 16.3211 16.3211C16.1475 16.4948 15.9413 16.6325 15.7144 16.7265C15.4875 16.8205 15.2443 16.8689 14.9988 16.8689Z" fill="white"/>
</svg>
