<svg width="30" height="30" viewBox="0 0 30 30" fill="none" xmlns="http://www.w3.org/2000/svg">
<circle cx="15" cy="15" r="15" fill="#FF8412"/>
<g clip-path="url(#clip0_4_104)">
<path d="M21.1677 10.4771C21.1678 10.3779 21.1415 10.2805 21.0917 10.1947C21.0418 10.1089 20.9702 10.0379 20.8839 9.98886C20.7977 9.93981 20.7 9.91449 20.6008 9.91548C20.5017 9.91646 20.4045 9.94372 20.3193 9.99447C19.9906 10.1901 19.6367 10.34 19.2674 10.4398C18.74 9.9873 18.0675 9.73968 17.3726 9.74221C16.6103 9.74308 15.8781 10.0402 15.3307 10.5708C14.7834 11.1014 14.4636 11.8239 14.439 12.5858C12.9362 12.3462 11.5741 11.5618 10.6126 10.3822C10.5546 10.3119 10.4806 10.2566 10.3968 10.2209C10.313 10.1852 10.2219 10.1702 10.131 10.1771C10.0403 10.1846 9.95268 10.214 9.87585 10.263C9.79903 10.3119 9.73527 10.3788 9.6901 10.4579C9.45846 10.8621 9.32542 11.3153 9.30179 11.7806C9.27816 12.2459 9.3646 12.7102 9.55409 13.1359L9.553 13.137C9.46783 13.1894 9.39754 13.2629 9.34886 13.3502C9.30018 13.4376 9.27473 13.536 9.27494 13.636C9.27391 13.7186 9.27886 13.801 9.28975 13.8828C9.34711 14.5895 9.66028 15.2509 10.1705 15.7431C10.1359 15.8091 10.1148 15.8812 10.1084 15.9554C10.102 16.0297 10.1104 16.1044 10.1332 16.1753C10.3557 16.8684 10.8288 17.4535 11.4599 17.8162C10.8187 18.0641 10.1263 18.1506 9.44386 18.0679C9.31754 18.0521 9.18958 18.0796 9.08098 18.1461C8.97238 18.2125 8.88958 18.3139 8.84616 18.4335C8.80274 18.5532 8.80129 18.6841 8.84203 18.8047C8.88277 18.9253 8.9633 19.0285 9.0704 19.0973C10.2442 19.8533 11.6109 20.2553 13.007 20.2551C14.5903 20.2729 16.1351 19.767 17.4011 18.816C18.6671 17.865 19.5833 16.5223 20.0072 14.9967C20.2055 14.3321 20.3067 13.6424 20.3078 12.9489C20.3078 12.9121 20.3078 12.8743 20.3072 12.8364C20.6004 12.5202 20.8276 12.1487 20.9753 11.7435C21.1231 11.3384 21.1885 10.9078 21.1677 10.4771ZM19.3107 12.2809C19.2179 12.3906 19.171 12.5318 19.1796 12.6752C19.1851 12.7679 19.1846 12.8611 19.1846 12.9489C19.1834 13.5349 19.0975 14.1177 18.9295 14.6792C18.5833 15.9772 17.8115 17.1216 16.7377 17.9289C15.6639 18.7362 14.3502 19.1598 13.007 19.1319C12.5246 19.132 12.0437 19.0753 11.5745 18.963C12.1729 18.7702 12.7323 18.4729 13.227 18.0849C13.3181 18.0132 13.3847 17.915 13.4178 17.8039C13.4509 17.6928 13.4488 17.5741 13.4118 17.4642C13.3748 17.3543 13.3047 17.2586 13.2111 17.1901C13.1175 17.1217 13.005 17.0839 12.8891 17.0819C12.4223 17.0746 11.9766 16.8864 11.6458 16.557C11.7297 16.5411 11.8131 16.5214 11.8959 16.4978C12.0172 16.4632 12.1234 16.3889 12.1973 16.2867C12.2712 16.1845 12.3086 16.0604 12.3034 15.9344C12.2982 15.8083 12.2507 15.6877 12.1687 15.592C12.0866 15.4962 11.9747 15.4308 11.8509 15.4064C11.58 15.3529 11.325 15.2376 11.1059 15.0695C10.8867 14.9015 10.7093 14.6851 10.5873 14.4373C10.6888 14.4512 10.791 14.4598 10.8934 14.4631C11.015 14.4649 11.1341 14.428 11.2333 14.3577C11.3326 14.2874 11.407 14.1874 11.4456 14.0721C11.4827 13.9557 11.4808 13.8304 11.4402 13.7152C11.3996 13.6 11.3226 13.5012 11.2208 13.4337C10.9738 13.2691 10.7714 13.0459 10.6319 12.7839C10.4923 12.5219 10.4199 12.2294 10.4212 11.9326C10.4212 11.8953 10.4223 11.858 10.4245 11.8213C11.6831 12.9952 13.3157 13.6872 15.0346 13.7754C15.1213 13.7788 15.2078 13.7624 15.2873 13.7276C15.3668 13.6927 15.4374 13.6402 15.4936 13.5741C15.5493 13.5073 15.5888 13.4285 15.6088 13.3439C15.6289 13.2593 15.6291 13.1712 15.6093 13.0865C15.5772 12.9525 15.5608 12.8152 15.5605 12.6774C15.561 12.197 15.7521 11.7364 16.0918 11.3967C16.4315 11.057 16.8921 10.8659 17.3725 10.8654C17.6197 10.8647 17.8643 10.9153 18.091 11.0139C18.3176 11.1126 18.5214 11.2571 18.6893 11.4385C18.7541 11.5082 18.8356 11.5601 18.9261 11.5894C19.0167 11.6187 19.1132 11.6243 19.2065 11.6058C19.4372 11.5609 19.6646 11.5004 19.8871 11.4248C19.7353 11.7354 19.5413 12.0234 19.3107 12.2809Z" fill="white"/>
</g>
<defs>
<clipPath id="clip0_4_104">
<rect width="13.4783" height="13.4783" fill="white" transform="translate(8.25781 8.25781)"/>
</clipPath>
</defs>
</svg>
